M48
; DRILL file {KiCad 9.0.0} date 2025-09-03T19:02:38-0400
; FORMAT={-:-/ absolute / metric / decimal}
; #@! TF.CreationDate,2025-09-03T19:02:38-04:00
; #@! TF.GenerationSoftware,Kicad,Pcbnew,9.0.0
; #@! TF.FileFunction,Plated,1,2,PTH
FMAT,2
METRIC
; #@! TA.AperFunction,Plated,PTH,ComponentDrill
T1C0.850
; #@! TA.AperFunction,Plated,PTH,ComponentDrill
T2C0.900
; #@! TA.AperFunction,Plated,PTH,ComponentDrill
T3C1.000
; #@! TA.AperFunction,Plated,PTH,ComponentDrill
T4C1.100
; #@! TA.AperFunction,Plated,PTH,ComponentDrill
T5C1.200
; #@! TA.AperFunction,Plated,PTH,ViaDrill
T6C1.500
; #@! TA.AperFunction,Plated,PTH,ComponentDrill
T7C2.000
%
G90
G05
T1
X93.931Y-82.301
X96.471Y-82.301
X99.011Y-82.301
X130.365Y-82.645
X132.905Y-82.645
X135.445Y-82.645
T2
X33.121Y-68.964
X33.121Y-71.504
X110.436Y-81.599
X112.976Y-81.599
X146.115Y-82.443
X148.655Y-82.443
T3
X109.331Y-36.569
X109.331Y-46.569
X145.105Y-36.013
X145.105Y-46.013
T4
X45.811Y-43.679
X45.811Y-53.839
X45.811Y-58.929
X45.811Y-69.089
X51.441Y-58.689
X51.441Y-68.849
X51.681Y-43.609
X51.681Y-53.769
X95.761Y-25.969
X98.301Y-25.969
X100.841Y-25.969
X101.391Y-36.839
X101.391Y-46.999
X132.275Y-25.998
X134.815Y-25.998
X137.355Y-25.998
X138.675Y-37.623
X138.675Y-47.783
X159.161Y-49.469
X160.381Y-26.534
X162.921Y-26.534
X165.461Y-26.534
X169.321Y-49.469
T5
X33.301Y-38.389
X33.301Y-58.709
X92.911Y-73.519
X94.291Y-32.099
X94.291Y-52.419
X96.643Y-61.369
X104.143Y-61.369
X113.231Y-73.519
X129.155Y-74.003
X132.215Y-32.633
X132.215Y-52.953
X134.227Y-61.553
X141.727Y-61.553
X149.475Y-74.003
X159.431Y-37.619
X166.931Y-37.619
T6
X31.831Y-31.079
X40.411Y-30.959
X49.501Y-31.019
X108.241Y-25.189
X119.641Y-25.749
X145.315Y-25.093
X172.131Y-25.669
T7
X72.651Y-65.584
X72.651Y-75.584
X72.808Y-38.687
X72.808Y-48.687
M30
